<svg width="88" height="88" viewBox="0 0 88 88" fill="none" xmlns="http://www.w3.org/2000/svg">
<path d="M80.9036 20.2417C67.8411 -0.00828206 41.0911 -6.00828 20.4036 6.55422C0.216132 19.1167 -6.28387 46.4917 6.77863 66.6792L7.84113 68.3042L3.46613 84.6792L19.8411 80.3042L21.4661 81.3667C28.5286 85.1792 36.2161 87.3667 43.8411 87.3667C52.0286 87.3667 60.2161 85.1792 67.2786 80.8042C87.4661 67.6792 93.4661 40.8667 80.9036 20.1167V20.2417ZM69.4661 62.3667C67.2786 65.6167 64.5286 67.8042 60.7161 68.3667C58.5286 68.3667 55.7786 69.4292 44.9036 65.1167C35.6536 60.7417 27.9661 53.6167 22.5286 45.4292C19.2786 41.6167 17.5911 36.6792 17.0911 31.7417C17.0911 27.3667 18.7161 23.5542 21.4661 20.8042C22.5286 19.7417 23.6536 19.1792 24.7161 19.1792H27.4661C28.5286 19.1792 29.6536 19.1792 30.2161 21.3667C31.2786 24.1167 34.0286 30.6792 34.0286 31.2417C34.5911 31.8042 34.3411 35.9917 31.8411 38.3667C30.4661 39.9292 30.2161 39.9917 30.7786 41.1167C32.9661 44.3667 35.7161 47.6792 38.4036 50.4292C41.6536 53.1792 44.9661 55.3667 48.7786 56.9917C49.8411 57.5542 50.9661 57.5542 51.5286 56.4292C52.0911 55.3667 54.7786 52.6167 55.9036 51.4917C56.9661 50.4292 57.5286 50.4292 58.6536 50.9292L67.4036 55.3042C68.4661 55.8667 69.5911 56.3667 70.1536 56.9292C70.7161 58.5542 70.7161 60.7417 69.5911 62.3667H69.4661Z" fill="white"/>
</svg>
