<svg width="497" height="98" viewBox="0 0 497 98" fill="none" xmlns="http://www.w3.org/2000/svg">
<g style="mix-blend-mode:plus-lighter">
<path fill-rule="evenodd" clip-rule="evenodd" d="M125.2 43.4539C125.131 42.5574 124.838 41.5575 124.321 40.4545C123.804 39.3513 123.045 38.317 122.045 37.3514C121.045 36.3861 119.804 35.5931 118.322 34.9726C116.839 34.3521 115.064 34.0418 112.995 34.0418C110.099 34.0418 107.548 34.8691 105.341 36.5241C103.134 38.179 101.583 40.4891 100.687 43.4539H125.2ZM137.508 63.1059C135.164 67.2433 132.009 70.5873 128.044 73.1387C124.079 75.69 119.235 76.9656 113.512 76.9656C109.651 76.9656 106.082 76.2932 102.807 74.9487C99.5317 73.6039 96.6875 71.725 94.2739 69.3116C91.8607 66.8985 89.9816 64.0538 88.637 60.7787C87.2925 57.5032 86.6201 53.9004 86.6201 49.9703C86.6201 46.3158 87.275 42.8506 88.5849 39.5756C89.8951 36.3003 91.7226 33.4386 94.0669 30.9906C96.4111 28.5429 99.1866 26.5946 102.393 25.1468C105.6 23.699 109.133 22.975 112.995 22.975C117.063 22.975 120.683 23.6474 123.855 24.9919C127.027 26.3367 129.682 28.1983 131.819 30.5771C133.957 32.9559 135.577 35.7658 136.68 39.0067C137.784 42.2474 138.335 45.7642 138.335 49.5568C138.335 50.0394 138.335 50.453 138.335 50.7978C138.266 51.2113 138.232 51.5908 138.232 51.9356C138.163 52.2804 138.128 52.6596 138.128 53.0734H99.9621C100.238 55.1419 100.807 56.9175 101.669 58.4002C102.531 59.8828 103.6 61.1236 104.875 62.1235C106.151 63.1232 107.547 63.8475 109.064 64.2953C110.581 64.7437 112.133 64.9677 113.718 64.9677C116.821 64.9677 119.39 64.261 121.424 62.8475C123.458 61.4338 125.061 59.6585 126.234 57.5208L137.508 63.1062L137.508 63.1059ZM158.104 72.8285L136.797 24.6298H152.208L165.034 55.3487H165.758L178.066 24.6298H193.167L161.414 97.6517H146.83L158.104 72.8285ZM208.281 31.2492H209.108C210.694 28.698 212.832 26.6811 215.521 25.1984C218.21 23.7161 221.279 22.9747 224.727 22.9747C227.899 22.9747 230.691 23.4918 233.105 24.526C235.518 25.5603 237.5 27.0257 239.052 28.9218C240.603 30.818 241.775 33.0935 242.568 35.7485C243.361 38.4032 243.758 41.351 243.758 44.5919V75.3108H230.208V46.2469C230.208 42.5922 229.398 39.8859 227.778 38.1276C226.157 36.369 223.796 35.4901 220.693 35.4901C218.831 35.4901 217.193 35.8863 215.78 36.6795C214.366 37.4725 213.16 38.5413 212.16 39.8861C211.16 41.2306 210.401 42.8165 209.884 44.6437C209.367 46.471 209.109 48.419 209.109 50.4876V75.311H195.559V24.63H208.281V31.2495L208.281 31.2492ZM275.283 64.4507C273.49 64.4507 271.784 64.1059 270.163 63.4164C268.543 62.7268 267.112 61.7614 265.871 60.5201C264.63 59.2788 263.63 57.7619 262.871 55.9692C262.113 54.1763 261.734 52.1767 261.734 49.9701C261.734 47.7634 262.113 45.764 262.871 43.9709C263.63 42.178 264.63 40.661 265.871 39.4198C267.112 38.1787 268.543 37.2136 270.163 36.5239C271.784 35.8342 273.49 35.4896 275.283 35.4896C277.076 35.4896 278.783 35.8169 280.403 36.4723C282.024 37.1271 283.454 38.0752 284.695 39.3165C285.937 40.5578 286.936 42.0747 287.695 43.8676C288.453 45.6603 288.833 47.6945 288.833 49.9701C288.833 52.2456 288.453 54.2796 287.695 56.0725C286.936 57.8654 285.937 59.3823 284.695 60.6231C283.454 61.8644 282.024 62.8127 280.403 63.4678C278.783 64.1227 277.076 64.4505 275.283 64.4505V64.4507ZM287.925 8.85645V30.5975C286.682 28.518 284.778 26.7358 282.213 25.2505C279.593 23.7336 276.352 22.9752 272.491 22.9752C269.25 22.9752 266.164 23.6476 263.233 24.9921C260.303 26.3369 257.717 28.1985 255.476 30.5773C253.235 32.9561 251.459 35.8008 250.149 39.1107C248.839 42.4203 248.184 46.0404 248.184 49.9708C248.184 53.9009 248.839 57.5212 250.149 60.8311C251.459 64.1409 253.235 66.9851 255.476 69.364C257.717 71.7428 260.303 73.6048 263.233 74.9494C266.164 76.2939 269.25 76.9663 272.491 76.9663C276.352 76.9663 279.593 76.2077 282.213 74.6907C284.778 73.2058 286.682 71.4235 287.925 69.3438V75.3113H288.833H301.555H301.623V8.85668H287.926L287.925 8.85645Z" fill="#24DB99"/>
<path fill-rule="evenodd" clip-rule="evenodd" d="M125.2 43.4539C125.131 42.5574 124.838 41.5575 124.321 40.4545C123.804 39.3513 123.045 38.317 122.045 37.3514C121.045 36.3861 119.804 35.5931 118.322 34.9726C116.839 34.3521 115.064 34.0418 112.995 34.0418C110.099 34.0418 107.548 34.8691 105.341 36.5241C103.134 38.179 101.583 40.4891 100.687 43.4539H125.2ZM137.508 63.1059C135.164 67.2433 132.009 70.5873 128.044 73.1387C124.079 75.69 119.235 76.9656 113.512 76.9656C109.651 76.9656 106.082 76.2932 102.807 74.9487C99.5317 73.6039 96.6875 71.725 94.2739 69.3116C91.8607 66.8985 89.9816 64.0538 88.637 60.7787C87.2925 57.5032 86.6201 53.9004 86.6201 49.9703C86.6201 46.3158 87.275 42.8506 88.5849 39.5756C89.8951 36.3003 91.7226 33.4386 94.0669 30.9906C96.4111 28.5429 99.1866 26.5946 102.393 25.1468C105.6 23.699 109.133 22.975 112.995 22.975C117.063 22.975 120.683 23.6474 123.855 24.9919C127.027 26.3367 129.682 28.1983 131.819 30.5771C133.957 32.9559 135.577 35.7658 136.68 39.0067C137.784 42.2474 138.335 45.7642 138.335 49.5568C138.335 50.0394 138.335 50.453 138.335 50.7978C138.266 51.2113 138.232 51.5908 138.232 51.9356C138.163 52.2804 138.128 52.6596 138.128 53.0734H99.9621C100.238 55.1419 100.807 56.9175 101.669 58.4002C102.531 59.8828 103.6 61.1236 104.875 62.1235C106.151 63.1232 107.547 63.8475 109.064 64.2953C110.581 64.7437 112.133 64.9677 113.718 64.9677C116.821 64.9677 119.39 64.261 121.424 62.8475C123.458 61.4338 125.061 59.6585 126.234 57.5208L137.508 63.1062L137.508 63.1059ZM158.104 72.8285L136.797 24.6298H152.208L165.034 55.3487H165.758L178.066 24.6298H193.167L161.414 97.6517H146.83L158.104 72.8285ZM208.281 31.2492H209.108C210.694 28.698 212.832 26.6811 215.521 25.1984C218.21 23.7161 221.279 22.9747 224.727 22.9747C227.899 22.9747 230.691 23.4918 233.105 24.526C235.518 25.5603 237.5 27.0257 239.052 28.9218C240.603 30.818 241.775 33.0935 242.568 35.7485C243.361 38.4032 243.758 41.351 243.758 44.5919V75.3108H230.208V46.2469C230.208 42.5922 229.398 39.8859 227.778 38.1276C226.157 36.369 223.796 35.4901 220.693 35.4901C218.831 35.4901 217.193 35.8863 215.78 36.6795C214.366 37.4725 213.16 38.5413 212.16 39.8861C211.16 41.2306 210.401 42.8165 209.884 44.6437C209.367 46.471 209.109 48.419 209.109 50.4876V75.311H195.559V24.63H208.281V31.2495L208.281 31.2492ZM275.283 64.4507C273.49 64.4507 271.784 64.1059 270.163 63.4164C268.543 62.7268 267.112 61.7614 265.871 60.5201C264.63 59.2788 263.63 57.7619 262.871 55.9692C262.113 54.1763 261.734 52.1767 261.734 49.9701C261.734 47.7634 262.113 45.764 262.871 43.9709C263.63 42.178 264.63 40.661 265.871 39.4198C267.112 38.1787 268.543 37.2136 270.163 36.5239C271.784 35.8342 273.49 35.4896 275.283 35.4896C277.076 35.4896 278.783 35.8169 280.403 36.4723C282.024 37.1271 283.454 38.0752 284.695 39.3165C285.937 40.5578 286.936 42.0747 287.695 43.8676C288.453 45.6603 288.833 47.6945 288.833 49.9701C288.833 52.2456 288.453 54.2796 287.695 56.0725C286.936 57.8654 285.937 59.3823 284.695 60.6231C283.454 61.8644 282.024 62.8127 280.403 63.4678C278.783 64.1227 277.076 64.4505 275.283 64.4505V64.4507ZM287.925 8.85645V30.5975C286.682 28.518 284.778 26.7358 282.213 25.2505C279.593 23.7336 276.352 22.9752 272.491 22.9752C269.25 22.9752 266.164 23.6476 263.233 24.9921C260.303 26.3369 257.717 28.1985 255.476 30.5773C253.235 32.9561 251.459 35.8008 250.149 39.1107C248.839 42.4203 248.184 46.0404 248.184 49.9708C248.184 53.9009 248.839 57.5212 250.149 60.8311C251.459 64.1409 253.235 66.9851 255.476 69.364C257.717 71.7428 260.303 73.6048 263.233 74.9494C266.164 76.2939 269.25 76.9663 272.491 76.9663C276.352 76.9663 279.593 76.2077 282.213 74.6907C284.778 73.2058 286.682 71.4235 287.925 69.3438V75.3113H288.833H301.555H301.623V8.85668H287.926L287.925 8.85645Z" fill="#1AD6FF" fill-opacity="0.38"/>
</g>
<path fill-rule="evenodd" clip-rule="evenodd" d="M337.574 76.1383C333.436 76.1383 330.006 74.8627 327.282 72.3114C324.559 69.7602 323.162 66.209 323.093 61.6581V33.318H314.198V24.63H323.093V9.11531H332.609V24.63H345.021V33.318H332.609V58.555C332.609 61.9338 333.264 64.2264 334.574 65.4334C335.884 66.6398 337.367 67.2433 339.022 67.2433C339.78 67.2433 340.521 67.1569 341.246 66.9847C341.97 66.8122 342.642 66.5882 343.263 66.3123L346.262 74.7935C343.78 75.69 340.884 76.1381 337.574 76.1381L337.574 76.1383ZM357.342 43.8681H386.406C386.13 40.3512 384.7 37.4381 382.114 35.1282C379.528 32.8183 376.063 31.663 371.719 31.663C368.133 31.663 365.047 32.7662 362.462 34.9728C359.876 37.1795 358.169 40.1445 357.342 43.8681ZM372.546 76.9658C365.099 76.9658 358.962 74.4146 354.135 69.3119C349.309 64.2094 346.896 57.7621 346.896 49.9703C346.896 42.2474 349.24 35.8174 353.928 30.6806C358.617 25.5435 364.617 22.975 371.926 22.975C379.442 22.975 385.424 25.4057 389.871 30.2666C394.318 35.128 396.542 41.9371 396.542 50.6943L396.439 51.7286H356.618C356.756 56.6932 358.411 60.6925 361.583 63.7267C364.754 66.7606 368.547 68.2773 372.96 68.2773C379.028 68.2773 383.786 65.2437 387.233 59.1756L395.715 63.3127C393.439 67.5879 390.284 70.9323 386.251 73.3455C382.217 75.7589 377.649 76.9656 372.547 76.9656L372.546 76.9658ZM425.102 76.9658C417.586 76.9658 411.346 74.4146 406.381 69.3119C401.486 64.0715 399.038 57.6243 399.038 49.9703C399.038 42.1785 401.485 35.7314 406.381 30.6285C411.346 25.526 417.586 22.9747 425.102 22.9747C430.274 22.9747 434.79 24.2677 438.651 26.8532C442.513 29.4391 445.409 33.0073 447.34 37.5584L438.651 41.1785C435.962 34.8348 431.239 31.6628 424.482 31.6628C420.137 31.6628 416.38 33.4213 413.208 36.9377C410.105 40.4545 408.553 44.7984 408.553 49.9701C408.553 55.1415 410.105 59.4856 413.208 63.0022C416.38 66.519 420.137 68.2771 424.482 68.2771C431.446 68.2771 436.342 65.1053 439.169 58.7616L447.65 62.3817C445.788 66.9326 442.875 70.501 438.91 73.0866C434.945 75.6724 430.343 76.9654 425.102 76.9654V76.9658ZM461.626 8.85645V24.63L461.212 31.663H461.626C463.074 29.1807 465.298 27.1121 468.297 25.4573C471.297 23.8025 474.417 22.975 477.658 22.975C483.863 22.975 488.639 24.7506 491.983 28.3015C495.327 31.8527 496.999 36.9038 496.999 43.4541V75.3108H487.484V45.3159C487.484 36.2139 483.45 31.663 475.382 31.663C471.521 31.663 468.263 33.2662 465.608 36.4728C462.953 39.6789 461.626 43.4198 461.626 47.695V75.311H452.11V8.85645H461.626Z" fill="#D5FAC7"/>
<g style="mix-blend-mode:plus-lighter">
<path fill-rule="evenodd" clip-rule="evenodd" d="M34.1768 0H59.3553C72.048 0 82.4328 10.3845 82.4328 23.0773C82.4328 35.77 72.0483 46.1548 59.3553 46.1548H34.1768V30.8006H57.7734C62.0114 30.8006 65.4788 27.3335 65.4788 23.0953V23.0948C65.4788 18.8565 62.0117 15.3894 57.7734 15.3894H34.1768V0Z" fill="#24DB99"/>
<path fill-rule="evenodd" clip-rule="evenodd" d="M34.1768 0H59.3553C72.048 0 82.4328 10.3845 82.4328 23.0773C82.4328 35.77 72.0483 46.1548 59.3553 46.1548H34.1768V30.8006H57.7734C62.0114 30.8006 65.4788 27.3335 65.4788 23.0953V23.0948C65.4788 18.8565 62.0117 15.3894 57.7734 15.3894H34.1768V0Z" fill="#1AD6FF" fill-opacity="0.38"/>
<path fill-rule="evenodd" clip-rule="evenodd" d="M34.1768 76.9655H59.3553C72.048 76.9655 82.4328 66.581 82.4328 53.888C82.4328 41.1953 72.0483 30.8105 59.3553 30.8105H34.1768V46.1824H57.7734C62.0114 46.1824 65.4788 49.6495 65.4788 53.8878V53.8883C65.4788 58.1265 62.0117 61.5936 57.7734 61.5936H34.1768V76.9655Z" fill="#24DB99"/>
<path fill-rule="evenodd" clip-rule="evenodd" d="M34.1768 76.9655H59.3553C72.048 76.9655 82.4328 66.581 82.4328 53.888C82.4328 41.1953 72.0483 30.8105 59.3553 30.8105H34.1768V46.1824H57.7734C62.0114 46.1824 65.4788 49.6495 65.4788 53.8878V53.8883C65.4788 58.1265 62.0117 61.5936 57.7734 61.5936H34.1768V76.9655Z" fill="#1AD6FF" fill-opacity="0.38"/>
<path d="M14.1292 30.7646H1.26449C0.566132 30.7646 0 31.3308 0 32.0291V44.954C0 45.6524 0.566132 46.2185 1.26449 46.2185H14.1292C14.8275 46.2185 15.3937 45.6524 15.3937 44.954V32.0291C15.3937 31.3308 14.8275 30.7646 14.1292 30.7646Z" fill="#24DB99"/>
<path d="M14.1292 30.7646H1.26449C0.566132 30.7646 0 31.3308 0 32.0291V44.954C0 45.6524 0.566132 46.2185 1.26449 46.2185H14.1292C14.8275 46.2185 15.3937 45.6524 15.3937 44.954V32.0291C15.3937 31.3308 14.8275 30.7646 14.1292 30.7646Z" fill="#1AD6FF" fill-opacity="0.38"/>
<path d="M29.5257 46.1611H16.661C15.9626 46.1611 15.3965 46.7273 15.3965 47.4256V60.3505C15.3965 61.0488 15.9626 61.615 16.661 61.615H29.5257C30.224 61.615 30.7902 61.0488 30.7902 60.3505V47.4256C30.7902 46.7273 30.224 46.1611 29.5257 46.1611Z" fill="#24DB99"/>
<path d="M29.5257 46.1611H16.661C15.9626 46.1611 15.3965 46.7273 15.3965 47.4256V60.3505C15.3965 61.0488 15.9626 61.615 16.661 61.615H29.5257C30.224 61.615 30.7902 61.0488 30.7902 60.3505V47.4256C30.7902 46.7273 30.224 46.1611 29.5257 46.1611Z" fill="#1AD6FF" fill-opacity="0.38"/>
<path d="M44.9212 61.5117H32.0565C31.3581 61.5117 30.792 62.0779 30.792 62.7762V75.7011C30.792 76.3994 31.3581 76.9656 32.0565 76.9656H44.9212C45.6195 76.9656 46.1857 76.3994 46.1857 75.7011V62.7762C46.1857 62.0779 45.6195 61.5117 44.9212 61.5117Z" fill="#24DB99"/>
<path d="M44.9212 61.5117H32.0565C31.3581 61.5117 30.792 62.0779 30.792 62.7762V75.7011C30.792 76.3994 31.3581 76.9656 32.0565 76.9656H44.9212C45.6195 76.9656 46.1857 76.3994 46.1857 75.7011V62.7762C46.1857 62.0779 45.6195 61.5117 44.9212 61.5117Z" fill="#1AD6FF" fill-opacity="0.38"/>
<path d="M44.9212 0H32.0565C31.3581 0 30.792 0.566132 30.792 1.26449V14.1893C30.792 14.8877 31.3581 15.4538 32.0565 15.4538H44.9212C45.6195 15.4538 46.1857 14.8877 46.1857 14.1893V1.26449C46.1857 0.566132 45.6195 0 44.9212 0Z" fill="#24DB99"/>
<path d="M44.9212 0H32.0565C31.3581 0 30.792 0.566132 30.792 1.26449V14.1893C30.792 14.8877 31.3581 15.4538 32.0565 15.4538H44.9212C45.6195 15.4538 46.1857 14.8877 46.1857 14.1893V1.26449C46.1857 0.566132 45.6195 0 44.9212 0Z" fill="#1AD6FF" fill-opacity="0.38"/>
<path d="M29.5257 15.3682H16.661C15.9626 15.3682 15.3965 15.9343 15.3965 16.6327V29.5575C15.3965 30.2559 15.9626 30.822 16.661 30.822H29.5257C30.224 30.822 30.7902 30.2559 30.7902 29.5575V16.6327C30.7902 15.9343 30.224 15.3682 29.5257 15.3682Z" fill="#24DB99"/>
<path d="M29.5257 15.3682H16.661C15.9626 15.3682 15.3965 15.9343 15.3965 16.6327V29.5575C15.3965 30.2559 15.9626 30.822 16.661 30.822H29.5257C30.224 30.822 30.7902 30.2559 30.7902 29.5575V16.6327C30.7902 15.9343 30.224 15.3682 29.5257 15.3682Z" fill="#1AD6FF" fill-opacity="0.38"/>
<path d="M44.9212 30.7646H32.0565C31.3581 30.7646 30.792 31.3308 30.792 32.0291V44.954C30.792 45.6524 31.3581 46.2185 32.0565 46.2185H44.9212C45.6195 46.2185 46.1857 45.6524 46.1857 44.954V32.0291C46.1857 31.3308 45.6195 30.7646 44.9212 30.7646Z" fill="#24DB99"/>
<path d="M44.9212 30.7646H32.0565C31.3581 30.7646 30.792 31.3308 30.792 32.0291V44.954C30.792 45.6524 31.3581 46.2185 32.0565 46.2185H44.9212C45.6195 46.2185 46.1857 45.6524 46.1857 44.954V32.0291C46.1857 31.3308 45.6195 30.7646 44.9212 30.7646Z" fill="#1AD6FF" fill-opacity="0.38"/>
<path fill-rule="evenodd" clip-rule="evenodd" d="M30.8338 13.2451H33.0357V15.4122H32.0123C31.3167 15.4122 30.7478 15.9811 30.7478 16.6767V17.5779H28.5459V15.4108H29.5693C30.2649 15.4108 30.8338 14.8419 30.8338 14.1463V13.2451Z" fill="#24DB99"/>
<path fill-rule="evenodd" clip-rule="evenodd" d="M30.8338 13.2451H33.0357V15.4122H32.0123C31.3167 15.4122 30.7478 15.9811 30.7478 16.6767V17.5779H28.5459V15.4108H29.5693C30.2649 15.4108 30.8338 14.8419 30.8338 14.1463V13.2451Z" fill="#1AD6FF" fill-opacity="0.38"/>
<path fill-rule="evenodd" clip-rule="evenodd" d="M28.1164 58.887H30.7909V60.3305C30.7909 61.0261 31.3597 61.595 32.0553 61.595H33.4667V64.2372H30.7923V62.7934C30.7923 62.0978 30.2234 61.5289 29.5278 61.5289H28.1162V58.8867L28.1164 58.887Z" fill="#24DB99"/>
<path fill-rule="evenodd" clip-rule="evenodd" d="M28.1164 58.887H30.7909V60.3305C30.7909 61.0261 31.3597 61.595 32.0553 61.595H33.4667V64.2372H30.7923V62.7934C30.7923 62.0978 30.2234 61.5289 29.5278 61.5289H28.1162V58.8867L28.1164 58.887Z" fill="#1AD6FF" fill-opacity="0.38"/>
<path fill-rule="evenodd" clip-rule="evenodd" d="M28.1164 28.1135H30.7909V29.5571C30.7909 30.2527 31.3597 30.8216 32.0553 30.8216H33.4667V33.4637H30.7923V32.02C30.7923 31.3244 30.2234 30.7555 29.5278 30.7555H28.1162V28.1133L28.1164 28.1135Z" fill="#24DB99"/>
<path fill-rule="evenodd" clip-rule="evenodd" d="M28.1164 28.1135H30.7909V29.5571C30.7909 30.2527 31.3597 30.8216 32.0553 30.8216H33.4667V33.4637H30.7923V32.02C30.7923 31.3244 30.2234 30.7555 29.5278 30.7555H28.1162V28.1133L28.1164 28.1135Z" fill="#1AD6FF" fill-opacity="0.38"/>
<path fill-rule="evenodd" clip-rule="evenodd" d="M30.8338 44.0176H33.0357V46.1847H32.0123C31.3167 46.1847 30.7478 46.7536 30.7478 47.4492V48.3503H28.5459V46.1832H29.5693C30.2649 46.1832 30.8338 45.6144 30.8338 44.9188V44.0178V44.0176Z" fill="#24DB99"/>
<path fill-rule="evenodd" clip-rule="evenodd" d="M30.8338 44.0176H33.0357V46.1847H32.0123C31.3167 46.1847 30.7478 46.7536 30.7478 47.4492V48.3503H28.5459V46.1832H29.5693C30.2649 46.1832 30.8338 45.6144 30.8338 44.9188V44.0178V44.0176Z" fill="#1AD6FF" fill-opacity="0.38"/>
<path fill-rule="evenodd" clip-rule="evenodd" d="M18.1012 28.1135H15.4268V29.5571C15.4268 30.2527 14.8579 30.8216 14.1623 30.8216H12.751V33.4637H15.4254V32.02C15.4254 31.3244 15.9943 30.7555 16.6899 30.7555H18.1012V28.1133V28.1135Z" fill="#24DB99"/>
<path fill-rule="evenodd" clip-rule="evenodd" d="M18.1012 28.1135H15.4268V29.5571C15.4268 30.2527 14.8579 30.8216 14.1623 30.8216H12.751V33.4637H15.4254V32.02C15.4254 31.3244 15.9943 30.7555 16.6899 30.7555H18.1012V28.1133V28.1135Z" fill="#1AD6FF" fill-opacity="0.38"/>
<path fill-rule="evenodd" clip-rule="evenodd" d="M15.3826 44.0176H13.1807V46.1847H14.2041C14.8997 46.1847 15.4685 46.7536 15.4685 47.4492V48.3503H17.6704V46.1832H16.6471C15.9515 46.1832 15.3826 45.6144 15.3826 44.9188V44.0178V44.0176Z" fill="#24DB99"/>
<path fill-rule="evenodd" clip-rule="evenodd" d="M15.3826 44.0176H13.1807V46.1847H14.2041C14.8997 46.1847 15.4685 46.7536 15.4685 47.4492V48.3503H17.6704V46.1832H16.6471C15.9515 46.1832 15.3826 45.6144 15.3826 44.9188V44.0178V44.0176Z" fill="#1AD6FF" fill-opacity="0.38"/>
</g>
</svg>
